<svg width="240" height="220" viewBox="0 0 240 220" xmlns="http://www.w3.org/2000/svg">
  <!-- Bottom egg shell -->
  <path d="M60 120 C60 170 80 190 120 190 C160 190 180 170 180 120 L170 110 L140 140 L120 110 L100 140 L70 110 Z" 
        fill="#ffffff" stroke="#9ca3af" stroke-width="4" stroke-linejoin="round"/>
  
  <!-- Top egg shell piece -->
  <path d="M50 100 C50 60 80 30 120 30 C160 30 190 60 190 100 L170 115 L140 90 L120 115 L100 90 L70 115 Z" 
        fill="#fffff0" stroke="#9ca3af" stroke-width="4" stroke-linejoin="round" 
        transform="rotate(-10, 120, 70)"/>
  
  <!-- Simple crack -->
  <path d="M70 110 L85 125 M170 110 L155 125" 
        stroke="#6b7280" stroke-width="3" stroke-linecap="round"/>
  
  <!-- Main crab body - simplified -->
  <ellipse cx="120" cy="130" rx="35" ry="25" fill="#ff6b35"/>
  
  <!-- Simple eyes -->
  <circle cx="110" cy="120" r="8" fill="white"/>
  <circle cx="110" cy="120" r="4" fill="#000000"/>
  
  <circle cx="130" cy="120" r="8" fill="white"/>
  <circle cx="130" cy="120" r="4" fill="#000000"/>
  
  <!-- Bold claws -->
  <ellipse cx="85" cy="135" rx="12" ry="18" fill="#e55a2b" transform="rotate(-20, 85, 135)"/>
  <rect x="78" y="125" width="8" height="12" rx="4" fill="#e55a2b" transform="rotate(-20, 82, 131)"/>
  
  <ellipse cx="155" cy="135" rx="12" ry="18" fill="#e55a2b" transform="rotate(20, 155, 135)"/>
  <rect x="154" y="125" width="8" height="12" rx="4" fill="#e55a2b" transform="rotate(20, 158, 131)"/>
  
  <!-- Simple body segment -->
  <ellipse cx="120" cy="150" rx="25" ry="12" fill="#e55a2b" opacity="0.8"/>
</svg>