<svg width="400" height="400" viewBox="0 0 400 400" xmlns="http://www.w3.org/2000/svg"> <defs> <radialGradient id="crabBody" cx="50%" cy="50%" r="50%"> <stop offset="0%" style="stop-color:#ff5e6c" /> <stop offset="100%" style="stop-color:#d91e36" /> </radialGradient> <linearGradient id="eggShadow" x1="0%" y1="0%" x2="0%" y2="100%"> <stop offset="0%" style="stop-color:#ffffff" /> <stop offset="100%" style="stop-color:#e2e8f0" /> </linearGradient> </defs> <path d="M110 240 C110 320 150 360 200 360 C250 360 290 320 290 240 L260 220 L235 250 L200 215 L165 250 L140 220 Z" fill="url(#eggShadow)" stroke="#cbd5e0" stroke-width="2"/> <circle cx="200" cy="245" r="75" fill="url(#crabBody)" /> <path d="M130 250 Q110 250 115 280" stroke="#d91e36" stroke-width="8" stroke-linecap="round" fill="none"/> <path d="M270 250 Q290 250 285 280" stroke="#d91e36" stroke-width="8" stroke-linecap="round" fill="none"/> <path d="M135 210 Q105 210 100 170 Q120 150 145 180 Z" fill="#ff4757" /> <path d="M265 210 Q295 210 300 170 Q280 150 255 180 Z" fill="#ff4757" /> <circle cx="175" cy="225" r="18" fill="white" /> <circle cx="175" cy="225" r="9" fill="#1a202c" /> <circle cx="178" cy="220" r="3" fill="white" /> <circle cx="225" cy="225" r="18" fill="white" /> <circle cx="225" cy="225" r="9" fill="#1a202c" /> <circle cx="228" cy="220" r="3" fill="white" /> <path d="M190 250 Q200 260 210 250" stroke="#700" stroke-width="3" fill="none" stroke-linecap="round" /> <g transform="rotate(-15, 200, 120) translate(0, -10)"> <path d="M130 140 C130 70 160 40 200 40 C240 40 270 70 270 140 L245 160 L220 135 L200 160 L180 135 L155 160 Z" fill="url(#eggShadow)" stroke="#cbd5e0" stroke-width="2"/> </g> </svg>
